<?xml version="1.0" standalone="no"?>
<!DOCTYPE svg PUBLIC "-//W3C//DTD SVG 20010904//EN"
 "http://www.w3.org/TR/2001/REC-SVG-200 10904/DTD/svg10.dtd">
<svg version="1.0" xmlns="http://www.w3.org/2000/svg"
 width="900.000000pt" height="900.000000pt" viewBox="0 0 900.000000 900.000000"
 preserveAspectRatio="xMidYMid meet">
<metadata>
Created by potrace 1.14, written by Peter Selinger 2001-2017
</metadata>
<g transform="translate(0.000000,900.000000) scale(0.100000,-0.100000)"
fill="#000000" stroke="none">
<path d="M0 4500 l0 -4500 4500 0 4500 0 0 4500 0 4500 -4500 0 -4500 0 0
-4500z m4840 3065 c363 -32 700 -111 1040 -242 162 -62 230 -94 224 -104 -3
-5 1 -6 9 -3 8 3 47 -11 86 -30 52 -27 71 -42 71 -56 0 -20 -10 -20 -1794 -20
-987 0 -1797 4 -1800 9 -6 10 245 132 390 190 557 221 1173 310 1774 256z
m1751 -606 c203 -133 475 -350 464 -370 -4 -5 2 -6 11 -2 13 5 16 3 11 -10 -4
-10 -2 -14 6 -11 7 2 32 -16 57 -41 l44 -45 -2689 0 -2689 0 49 51 c81 83 309
270 323 264 7 -3 10 -1 7 5 -5 8 121 103 245 183 l55 36 2006 0 2007 1 93 -61z
m781 -676 c137 -159 200 -242 192 -255 -4 -6 -3 -8 4 -5 13 9 95 -110 86 -125
-4 -6 -3 -8 4 -4 9 5 52 -42 52 -58 0 -3 -475 -7 -1056 -8 -941 -3 -1053 -1
-1033 12 13 8 52 39 87 68 36 28 74 52 86 52 12 0 35 -13 51 -30 36 -37 66
-38 105 -2 25 22 33 38 39 86 9 66 -1 134 -24 170 -24 37 -73 55 -182 67 -137
16 -257 -3 -377 -60 -124 -58 -203 -67 -383 -44 -76 9 -194 17 -263 17 -138 1
-222 -17 -453 -92 l-118 -38 -40 82 c-50 102 -86 136 -168 163 -78 25 -233 28
-296 6 -22 -8 -46 -15 -54 -15 -29 0 -84 -55 -136 -136 -36 -56 -62 -85 -77
-88 -149 -31 -175 -42 -255 -105 -28 -22 -54 -37 -59 -33 -4 4 -4 2 -1 -5 13
-22 -39 -50 -107 -56 -36 -3 -75 -11 -86 -17 -11 -6 -20 -7 -20 -3 0 4 -359 7
-797 5 -438 -1 -800 1 -805 6 -10 10 40 84 52 77 6 -3 8 0 5 7 -9 23 278 389
344 438 26 19 67 19 2812 20 l2787 0 84 -97z m-4535 -507 c-23 -24 -67 -87
-97 -141 -37 -65 -72 -113 -107 -144 -66 -59 -123 -131 -176 -223 l-42 -73
-734 3 -733 2 7 28 c9 36 161 346 217 442 l44 75 788 3 789 2 38 35 c54 48 57
44 6 -9z m2743 34 c-8 -5 -19 -10 -25 -10 -5 0 -3 5 5 10 8 5 20 10 25 10 6 0
3 -5 -5 -10z m1019 -60 l1167 0 48 -80 c52 -88 226 -441 226 -459 0 -8 -528
-12 -2015 -13 -1341 -2 -2014 0 -2011 7 2 6 11 28 20 51 l17 41 121 31 c122
32 228 79 408 183 111 64 140 73 322 103 205 35 327 66 423 110 44 19 86 33
93 31 8 -3 539 -5 1181 -5z m-2604 -609 l-15 -31 2052 -2 2052 -3 39 -115 c40
-119 99 -327 111 -392 l7 -38 -1848 0 -1847 0 39 -40 39 -40 1818 0 1817 0 5
-32 c3 -18 10 -60 16 -94 14 -83 40 -329 40 -381 l0 -43 -690 0 c-519 0 -690
-3 -690 -12 0 -6 -2 -9 -5 -6 -3 3 6 50 20 104 35 131 38 268 8 334 -59 131
-169 132 -301 3 -102 -99 -195 -159 -461 -297 l-243 -127 -362 1 -361 0 30
-26 c17 -14 5 -9 -25 12 -30 21 -78 59 -106 84 -367 324 -605 555 -679 660
-50 69 -55 74 -141 116 -85 42 -184 55 -375 52 -87 -1 -133 2 -141 10 -22 22
9 84 86 171 41 46 85 103 98 127 12 24 24 41 26 39 2 -2 -4 -17 -13 -34z
m-1620 -53 c-4 -13 -15 -46 -26 -75 -28 -79 -105 -350 -120 -423 -7 -36 -15
-57 -17 -47 -3 16 -46 17 -733 17 -688 0 -729 1 -729 18 0 29 57 239 106 390
l47 142 739 0 739 0 -6 -22z m-169 -696 c-21 -131 -20 -191 4 -259 25 -73 40
-87 126 -128 69 -33 85 -49 83 -83 0 -11 -2 -12 -6 -4 -4 9 -189 12 -879 12
l-873 0 4 28 c2 15 7 70 10 122 6 97 41 357 51 385 5 13 90 15 745 15 697 0
739 1 740 18 0 9 3 12 6 5 2 -7 -3 -57 -11 -111z m1995 -482 c19 -10 42 -27
49 -37 14 -17 14 -17 -5 -2 -41 34 -82 46 -169 52 l-88 6 18 -22 19 -22 -22
19 c-13 11 -23 23 -23 29 0 16 181 -3 221 -23z m2720 -37 c-12 -20 -14 -14 -5
12 4 9 9 14 11 11 3 -2 0 -13 -6 -23z m-2732 -23 l100 0 93 -82 c50 -46 135
-124 187 -173 53 -50 120 -108 149 -130 28 -21 52 -42 52 -46 0 -11 -54 -43
-71 -42 -9 1 -44 19 -77 41 -34 22 -105 59 -159 82 -127 55 -139 63 -162 108
-22 42 -77 102 -196 211 -44 41 -66 64 -48 52 27 -18 45 -21 132 -21z m1661
25 c-14 -8 -29 -14 -35 -14 -5 0 1 6 15 14 14 8 30 14 35 14 6 0 -1 -6 -15
-14z m-3409 -112 c15 -193 58 -314 145 -413 71 -81 85 -100 53 -72 l-25 22
-966 0 -965 0 -7 68 c-3 37 -9 160 -12 275 l-7 207 881 0 c817 0 882 1 882 17
0 9 3 14 6 10 3 -3 10 -54 15 -114z m823 95 c-4 -7 -2 -8 5 -4 7 5 68 -48 159
-136 231 -225 385 -349 489 -394 24 -10 45 -25 48 -33 4 -11 2 -11 -9 -2 -10
8 -81 11 -242 11 l-229 -2 -27 33 c-36 42 -87 142 -131 254 -59 148 -95 308
-67 290 6 -4 7 -11 4 -17z m2304 15 c-10 -2 -26 -2 -35 0 -10 3 -2 5 17 5 19
0 27 -2 18 -5z m-95 -10 c-7 -2 -19 -2 -25 0 -7 3 -2 5 12 5 14 0 19 -2 13 -5z
m-81 -16 c-20 -6 -36 -6 -42 -1 -5 5 8 9 33 10 l42 1 -33 -10z m408 6 c0 -1
-23 -9 -50 -18 -48 -16 -52 -16 -79 2 l-29 18 79 0 c43 0 79 -1 79 -2z m2528
-68 c4 -65 -16 -426 -25 -462 l-5 -23 -1102 0 c-868 0 -1105 -3 -1115 -12 -11
-10 -12 -10 -7 -1 13 24 96 74 162 99 112 42 305 133 400 189 97 57 192 148
239 230 l27 45 711 -2 712 -3 3 -60z m-4344 -531 c3 -8 2 -12 -4 -9 -6 3 -10
10 -10 16 0 14 7 11 14 -7z m-1221 -109 c113 -126 212 -291 239 -399 19 -78
23 -109 10 -89 -6 10 -245 13 -1100 13 -1044 1 -1092 1 -1101 19 -23 42 -93
354 -107 477 l-7 54 993 0 c881 0 991 2 980 15 -7 8 -10 15 -7 15 3 0 48 -47
100 -105z m3233 90 c-18 -13 118 -15 1137 -15 650 0 1157 -4 1157 -9 0 -52
-84 -448 -109 -514 l-11 -27 -1605 0 c-1416 0 -1609 -1 -1635 -15 -16 -8 -33
-15 -37 -14 -4 0 71 40 167 89 96 49 182 87 192 84 9 -3 19 0 23 5 3 7 0 8 -9
5 -9 -3 -16 -4 -16 -1 0 3 48 31 108 63 124 66 402 221 482 269 74 44 164 94
170 94 3 0 -4 -6 -14 -14z m-1927 -149 c8 -9 12 -18 10 -19 -79 -55 -120 -79
-125 -74 -4 4 1 9 10 13 9 3 16 11 16 17 0 5 -9 2 -20 -8 -11 -10 -17 -21 -15
-25 3 -4 -2 -13 -11 -20 -12 -11 -20 -10 -42 8 -75 60 -115 77 -184 78 l-68 0
-35 58 c-19 32 -32 63 -28 69 3 6 1 7 -5 3 -6 -3 -16 3 -22 14 -11 20 -9 20
210 20 121 0 220 -4 220 -8 0 -5 7 -17 16 -28 15 -18 15 -18 5 3 -6 12 -11 28
-10 35 0 7 15 -17 32 -53 18 -36 38 -74 46 -83z m806 -456 c-3 -5 -12 -10 -18
-10 -7 0 -6 4 3 10 19 12 23 12 15 0z m-1831 -116 c-45 -37 -238 -143 -339
-185 -55 -22 -174 -67 -265 -99 -188 -66 -314 -122 -349 -153 -13 -12 -37 -42
-52 -66 -16 -25 -29 -40 -29 -35 0 6 7 19 15 30 8 10 15 24 15 29 0 7 -166 9
-482 8 -266 -2 -488 1 -494 5 -16 10 -63 107 -117 237 -48 116 -107 280 -107
296 0 5 435 9 1095 9 869 0 1095 3 1095 13 0 6 9 -6 19 -28 l19 -40 -24 -21z
m5106 72 c0 -8 -77 -219 -105 -289 -20 -50 -30 -65 -37 -55 -7 9 -8 8 -4 -6 9
-26 -54 -171 -66 -154 -5 8 -7 4 -6 -12 l3 -25 -2090 -2 c-1149 -1 -2098 -4
-2107 -7 -10 -2 -18 -3 -18 -1 0 2 80 45 178 96 97 51 269 142 382 202 113 61
273 144 355 186 l150 76 1683 -3 c925 -1 1682 -4 1682 -6z m-4440 -560 c0 -2
-7 -7 -16 -10 -8 -3 -12 -2 -9 4 6 10 25 14 25 6z m4170 -74 c0 -17 -137 -247
-147 -247 -6 0 -15 -4 -20 -9 -5 -5 -3 -6 5 -2 14 8 17 -10 3 -19 -6 -3 -14 2
-19 11 -8 15 -10 15 -15 0 -4 -9 -1 -15 6 -13 27 5 5 -38 -73 -148 l-83 -115
-3033 0 c-1668 0 -3039 3 -3048 6 -9 3 -51 56 -94 118 -106 151 -114 165 -106
178 4 7 3 8 -4 4 -10 -6 -79 100 -132 204 l-20 40 454 0 454 0 -5 -64 c-10
-123 49 -221 178 -297 38 -22 67 -44 64 -49 -3 -5 0 -12 6 -16 8 -4 9 -3 5 4
-9 16 -1 15 32 -2 58 -30 137 -38 240 -26 139 17 97 0 705 289 75 36 91 40
105 29 15 -12 16 -11 3 4 -12 16 -10 19 20 32 19 8 75 34 124 58 l90 43 2153
-3 c1183 -1 2152 -6 2152 -10z"/>
<path d="M2690 3190 c-11 -7 -11 -10 -2 -10 8 0 10 -5 6 -12 -4 -7 -3 -9 1 -5
7 6 17 37 12 37 -1 0 -9 -5 -17 -10z"/>
<path d="M2643 3175 c0 -8 4 -12 9 -9 5 3 6 10 3 15 -9 13 -12 11 -12 -6z"/>
<path d="M2736 3148 c10 -15 23 -28 27 -28 5 0 6 -4 2 -9 -3 -5 5 -17 17 -25
12 -9 30 -30 39 -47 10 -21 19 -28 23 -20 4 7 -7 26 -27 46 -19 19 -33 36 -31
38 2 2 -13 19 -33 38 -31 29 -33 30 -17 7z"/>
<path d="M721 3134 c0 -11 3 -14 6 -6 3 7 2 16 -1 19 -3 4 -6 -2 -5 -13z"/>
<path d="M2729 3128 c-8 -25 -3 -44 12 -44 16 0 17 2 4 16 -8 9 -12 20 -8 23
3 4 3 7 0 7 -4 0 -7 -1 -8 -2z"/>
<path d="M742 3030 c0 -14 2 -19 5 -12 2 6 2 18 0 25 -3 6 -5 1 -5 -13z"/>
<path d="M2851 2994 c0 -11 3 -14 6 -6 3 7 2 16 -1 19 -3 4 -6 -2 -5 -13z"/>
<path d="M2870 2966 c0 -2 8 -10 18 -17 15 -13 16 -12 3 4 -13 16 -21 21 -21
13z"/>
<path d="M777 2893 c-4 -3 -7 -13 -7 -22 1 -13 3 -13 11 2 11 19 8 33 -4 20z"/>
<path d="M2911 2863 c-13 -27 -13 -28 8 -9 11 10 18 23 15 27 -8 13 -10 12
-23 -18z"/>
<path d="M2977 2749 c4 -13 8 -18 11 -10 2 7 -1 18 -6 23 -8 8 -9 4 -5 -13z"/>
<path d="M811 2730 c-1 -23 15 -45 23 -31 4 6 3 11 -3 11 -5 0 -12 8 -14 18
-3 12 -5 13 -6 2z"/>
<path d="M5940 3195 c-7 -8 -18 -15 -24 -15 -7 0 -21 -7 -32 -16 -18 -14 -18
-15 4 -4 13 6 30 9 38 6 8 -3 13 0 11 7 -1 7 7 11 18 10 11 -1 14 0 7 3 -6 3
-10 10 -6 15 9 15 -2 10 -16 -6z"/>
<path d="M8261 3154 c0 -11 3 -14 6 -6 3 7 2 16 -1 19 -3 4 -6 -2 -5 -13z"/>
<path d="M5825 3130 c-3 -5 -2 -10 4 -10 5 0 13 5 16 10 3 6 2 10 -4 10 -5 0
-13 -4 -16 -10z"/>
<path d="M5785 3111 c-3 -5 0 -13 6 -17 8 -5 9 -3 4 6 -6 10 -4 12 9 7 10 -4
15 -3 11 3 -8 13 -22 13 -30 1z"/>
<path d="M8252 3095 c0 -16 2 -22 5 -12 2 9 2 23 0 30 -3 6 -5 -1 -5 -18z"/>
<path d="M5739 3079 l-24 -20 28 17 c15 9 27 18 27 20 0 8 -8 4 -31 -17z"/>
<path d="M5695 3050 c-3 -5 -1 -10 4 -10 6 0 11 5 11 10 0 6 -2 10 -4 10 -3 0
-8 -4 -11 -10z"/>
<path d="M5645 3030 c-16 -11 -25 -20 -20 -20 10 0 64 39 55 40 -3 0 -18 -9
-35 -20z"/>
<path d="M5666 3015 c-11 -8 -16 -15 -10 -15 5 0 18 7 28 15 11 8 16 15 10 15
-5 0 -18 -7 -28 -15z"/>
<path d="M5560 2979 c-13 -8 -13 -9 2 -7 9 2 16 -1 15 -7 -1 -5 -11 -9 -22 -8
-11 1 -14 -1 -6 -4 11 -5 11 -7 0 -15 -10 -7 -8 -8 6 -3 11 4 25 8 31 8 13 0
12 23 -2 37 -6 6 -15 5 -24 -1z"/>
<path d="M5496 2944 c-11 -8 -16 -14 -10 -14 13 0 39 18 34 24 -3 2 -14 -2
-24 -10z"/>
<path d="M8191 2924 c0 -11 3 -14 6 -6 3 7 2 16 -1 19 -3 4 -6 -2 -5 -13z"/>
<path d="M5400 2895 c-14 -8 -20 -14 -15 -14 6 0 21 6 35 14 14 8 21 14 15 14
-5 0 -21 -6 -35 -14z"/>
<path d="M5360 2870 c0 -6 -3 -9 -8 -6 -4 2 -16 -3 -27 -11 -19 -15 -19 -15 5
-8 41 12 54 21 41 29 -6 4 -11 2 -11 -4z"/>
<path d="M8201 2844 c0 -11 3 -14 6 -6 3 7 2 16 -1 19 -3 4 -6 -2 -5 -13z"/>
<path d="M5252 2787 c10 -8 14 -18 10 -22 -4 -5 -1 -5 6 -1 17 10 15 14 -10
26 -21 10 -21 10 -6 -3z"/>
<path d="M5155 2760 c-16 -11 -24 -20 -17 -20 7 0 22 9 34 20 28 25 21 25 -17
0z"/>
<path d="M8171 2734 c0 -11 3 -14 6 -6 3 7 2 16 -1 19 -3 4 -6 -2 -5 -13z"/>
<path d="M5080 2725 c-14 -8 -20 -14 -14 -15 5 0 19 7 30 15 24 18 16 19 -16
0z"/>
<path d="M5030 2700 c-9 -6 -10 -10 -3 -10 6 0 15 5 18 10 8 12 4 12 -15 0z"/>
<path d="M5080 2700 c-18 -12 -2 -12 25 0 13 6 15 9 5 9 -8 0 -22 -4 -30 -9z"/>
<path d="M3950 3206 c0 -2 8 -10 18 -17 15 -13 16 -12 3 4 -13 16 -21 21 -21
13z"/>
<path d="M3604 3143 c9 -17 22 -35 28 -39 10 -6 10 -5 0 8 -7 8 -11 22 -9 29
2 8 2 10 -1 6 -2 -4 -11 0 -18 10 -12 14 -12 12 0 -14z"/>
<path d="M4030 3110 c6 -11 13 -20 16 -20 2 0 0 9 -6 20 -6 11 -13 20 -16 20
-2 0 0 -9 6 -20z"/>
<path d="M4010 3101 c0 -6 4 -13 10 -16 6 -3 7 1 4 9 -7 18 -14 21 -14 7z"/>
<path d="M3640 3080 c0 -5 5 -10 11 -10 5 0 7 5 4 10 -3 6 -8 10 -11 10 -2 0
-4 -4 -4 -10z"/>
<path d="M3675 3075 c24 -8 116 -12 103 -4 -7 5 -35 8 -63 8 -27 0 -45 -2 -40
-4z"/>
<path d="M3945 3060 c-3 -6 1 -7 9 -4 18 7 21 14 7 14 -6 0 -13 -4 -16 -10z"/>
<path d="M4015 3061 c-3 -5 -2 -12 3 -15 5 -3 9 1 9 9 0 17 -3 19 -12 6z"/>
<path d="M3975 3050 c-3 -6 1 -7 9 -4 18 7 21 14 7 14 -6 0 -13 -4 -16 -10z"/>
<path d="M3920 3034 c8 -10 15 -20 16 -22 1 -2 4 1 7 5 3 5 -4 15 -16 23 -21
12 -21 12 -7 -6z"/>
<path d="M3880 3006 c0 -2 7 -9 15 -16 13 -11 14 -10 9 4 -5 14 -24 23 -24 12z"/>
<path d="M858 2573 c7 -3 16 -2 19 1 4 3 -2 6 -13 5 -11 0 -14 -3 -6 -6z"/>
<path d="M3026 2565 c4 -8 8 -15 10 -15 2 0 4 7 4 15 0 8 -4 15 -10 15 -5 0
-7 -7 -4 -15z"/>
<path d="M860 2555 c0 -5 5 -17 10 -25 5 -8 10 -10 10 -5 0 6 -5 17 -10 25 -5
8 -10 11 -10 5z"/>
<path d="M3005 2550 c3 -5 8 -10 11 -10 2 0 4 5 4 10 0 6 -5 10 -11 10 -5 0
-7 -4 -4 -10z"/>
<path d="M2965 2510 c-3 -5 -3 -10 1 -10 4 0 -5 -9 -19 -20 -32 -25 -37 -25
-32 0 3 17 1 19 -16 10 -24 -13 -25 -21 -1 -14 15 5 15 4 2 -8 -35 -31 -19
-39 27 -13 53 28 116 75 76 56 -27 -14 -36 -14 -28 -1 3 6 4 10 1 10 -3 0 -8
-4 -11 -10z"/>
<path d="M922 2428 c-7 -7 -12 -17 -12 -22 0 -6 7 -2 15 8 11 15 15 16 15 5 0
-8 -5 -20 -12 -27 -6 -6 -9 -14 -7 -17 3 -3 12 6 19 20 16 29 2 53 -18 33z"/>
<path d="M2779 2419 l24 -9 -23 -20 c-13 -11 -28 -20 -33 -20 -6 0 -7 -3 -4
-6 4 -4 19 2 34 12 15 10 32 17 38 15 5 -1 1 7 -9 18 -11 12 -26 21 -35 20
-10 0 -7 -4 8 -10z"/>
<path d="M2840 2420 c-8 -5 -12 -11 -10 -14 3 -2 14 2 24 10 22 15 10 19 -14
4z"/>
<path d="M2740 2410 c8 -5 20 -10 25 -10 6 0 3 5 -5 10 -8 5 -19 10 -25 10 -5
0 -3 -5 5 -10z"/>
<path d="M2658 2334 c-39 -21 -35 -28 5 -8 37 19 44 24 31 24 -5 -1 -21 -8
-36 -16z"/>
<path d="M2590 2330 c8 -5 20 -10 25 -10 6 0 3 5 -5 10 -8 5 -19 10 -25 10 -5
0 -3 -5 5 -10z"/>
<path d="M2580 2300 c-8 -5 -10 -10 -5 -10 6 0 17 5 25 10 8 5 11 10 5 10 -5
0 -17 -5 -25 -10z"/>
<path d="M966 2267 c3 -10 9 -15 12 -12 3 3 0 11 -7 18 -10 9 -11 8 -5 -6z"/>
<path d="M2386 2258 c3 -4 11 -5 19 -1 21 7 19 12 -4 10 -11 0 -18 -5 -15 -9z"/>
<path d="M2451 2259 c-18 -6 -31 -12 -29 -14 5 -5 78 14 78 20 0 6 -8 5 -49
-6z"/>
<path d="M2340 2256 c0 -2 7 -7 16 -10 8 -3 12 -2 9 4 -6 10 -25 14 -25 6z"/>
<path d="M997 2221 c-4 -17 -3 -21 5 -13 5 5 8 16 6 23 -3 8 -7 3 -11 -10z"/>
<path d="M2360 2225 c-33 -19 -21 -19 21 0 19 8 27 14 19 14 -8 0 -26 -6 -40
-14z"/>
<path d="M2200 2190 c9 -6 8 -10 -6 -19 -11 -6 -14 -11 -9 -12 6 -1 -3 -4 -19
-8 -16 -3 -31 -12 -32 -19 -1 -7 0 -8 3 -2 2 5 14 10 26 10 24 1 100 39 79 40
-7 0 -11 3 -9 8 3 4 -6 8 -20 9 -17 1 -21 -2 -13 -7z m30 -14 c0 -2 -7 -7 -16
-10 -8 -3 -12 -2 -9 4 6 10 25 14 25 6z"/>
<path d="M1011 2170 c14 -31 19 -36 19 -24 0 6 -7 19 -16 30 -14 18 -14 18 -3
-6z"/>
<path d="M1030 2123 c0 -5 11 -21 25 -38 l25 -30 -21 38 c-20 36 -29 45 -29
30z"/>
<path d="M2009 2117 c-6 -8 -3 -54 3 -50 5 2 6 14 2 26 -6 19 -5 20 9 9 10 -9
17 -10 22 -2 3 5 5 10 3 11 -15 3 -38 7 -39 6z"/>
<path d="M2045 2080 c-14 -15 -14 -18 -1 -23 11 -4 13 -1 9 10 -4 10 -2 14 4
10 6 -4 16 -1 22 6 17 21 -16 17 -34 -3z"/>
<path d="M1090 2076 c0 -2 7 -7 16 -10 8 -3 12 -2 9 4 -6 10 -25 14 -25 6z"/>
<path d="M4770 2570 c-18 -12 -2 -12 25 0 13 6 15 9 5 9 -8 0 -22 -4 -30 -9z"/>
<path d="M8115 2570 c3 -5 8 -10 11 -10 2 0 4 5 4 10 0 6 -5 10 -11 10 -5 0
-7 -4 -4 -10z"/>
<path d="M4795 2550 c3 -5 12 -7 20 -3 21 7 19 13 -6 13 -11 0 -18 -4 -14 -10z"/>
<path d="M4615 2501 c-3 -5 0 -13 6 -17 7 -4 9 -3 5 4 -3 5 0 13 6 15 9 4 10
6 1 6 -6 1 -14 -3 -18 -8z"/>
<path d="M8097 2503 c-4 -3 -7 -11 -7 -17 0 -6 5 -5 12 2 6 6 9 14 7 17 -3 3
-9 2 -12 -2z"/>
<path d="M4605 2470 c10 -11 20 -20 23 -20 3 0 -3 9 -13 20 -10 11 -20 20 -23
20 -3 0 3 -9 13 -20z"/>
<path d="M4523 2444 l-28 -25 33 22 c17 13 32 24 32 26 0 8 -11 1 -37 -23z"/>
<path d="M8025 2429 c-4 -6 -5 -12 -2 -15 2 -3 7 2 10 11 7 17 1 20 -8 4z"/>
<path d="M8063 2405 c-3 -9 -3 -18 -1 -21 3 -3 8 4 11 16 6 23 -1 27 -10 5z"/>
<path d="M8031 2395 c-1 -5 3 -17 8 -24 6 -9 6 -22 -1 -34 -5 -10 -8 -21 -5
-23 2 -2 8 6 14 19 8 17 7 29 -3 48 -7 13 -13 20 -13 14z"/>
<path d="M4369 2360 c-13 -10 -20 -19 -16 -20 4 0 17 9 29 20 28 26 17 26 -13
0z"/>
<path d="M4281 2321 c-7 -5 -9 -11 -5 -14 5 -3 15 1 22 9 14 16 5 18 -17 5z"/>
<path d="M4194 2271 c-18 -11 -35 -24 -39 -30 -3 -6 -11 -8 -17 -5 -7 5 -8 2
-3 -6 6 -10 4 -12 -8 -7 -9 3 -18 3 -21 -1 -3 -4 4 -8 14 -9 11 -1 22 2 25 7
3 5 12 7 19 4 7 -3 19 3 27 13 13 16 12 17 -4 4 -9 -8 -20 -11 -23 -8 -9 9 58
47 69 40 6 -3 7 -1 3 5 -9 15 -5 15 -42 -7z"/>
<path d="M4210 2256 c0 -2 7 -7 16 -10 8 -3 12 -2 9 4 -6 10 -25 14 -25 6z"/>
<path d="M4054 2195 c-10 -8 -14 -14 -9 -14 6 0 19 6 29 14 11 8 15 15 10 15
-6 0 -19 -7 -30 -15z"/>
<path d="M7935 2189 c-4 -6 -5 -12 -2 -15 2 -3 7 2 10 11 7 17 1 20 -8 4z"/>
<path d="M7969 2198 c-5 -11 -7 -59 -2 -54 7 6 13 56 7 56 -2 0 -5 -1 -5 -2z"/>
<path d="M3998 2163 c7 -3 16 -2 19 1 4 3 -2 6 -13 5 -11 0 -14 -3 -6 -6z"/>
<path d="M3938 2139 c-21 -11 -38 -22 -38 -24 0 -3 18 4 40 15 22 11 40 23 40
25 0 7 0 7 -42 -16z"/>
<path d="M3998 2143 c6 -2 18 -2 25 0 6 3 1 5 -13 5 -14 0 -19 -2 -12 -5z"/>
<path d="M7927 2109 c7 -7 15 -10 18 -7 3 3 -2 9 -12 12 -14 6 -15 5 -6 -5z"/>
<path d="M3866 2088 c5 -7 2 -9 -7 -6 -8 3 -26 -1 -40 -9 -17 -10 -18 -12 -4
-8 11 4 30 8 43 10 30 3 37 11 17 19 -11 4 -14 2 -9 -6z"/>
<path d="M1977 1929 c4 -13 8 -18 11 -10 2 7 -1 18 -6 23 -8 8 -9 4 -5 -13z"/>
<path d="M7855 1942 c-10 -7 -18 -32 -10 -32 2 0 9 9 15 20 12 22 11 24 -5 12z"/>
<path d="M3524 1924 c-18 -14 -18 -15 4 -4 12 6 22 13 22 15 0 8 -5 6 -26 -11z"/>
<path d="M3550 1916 c0 -2 7 -7 16 -10 8 -3 12 -2 9 4 -6 10 -25 14 -25 6z"/>
<path d="M1967 1885 c-4 -8 -2 -17 3 -20 6 -4 10 3 10 14 0 25 -6 27 -13 6z"/>
<path d="M1159 1875 c5 -11 17 -29 26 -40 l16 -20 -10 20 c-5 11 -17 29 -26
40 l-16 20 10 -20z"/>
<path d="M3390 1865 c-39 -22 -41 -25 -20 -26 22 0 23 -1 6 -8 -19 -7 -19 -8
2 -13 12 -4 20 -2 16 3 -3 5 1 9 8 9 9 0 9 3 -2 10 -13 9 -13 11 0 20 8 5 21
8 28 5 7 -3 11 -1 7 4 -3 5 1 12 7 14 7 3 9 6 3 6 -5 0 -30 -11 -55 -24z"/>
<path d="M7804 1848 c-4 -7 -14 -24 -22 -38 -14 -24 -13 -24 3 -5 20 24 37 55
31 55 -3 0 -8 -6 -12 -12z"/>
<path d="M1970 1840 c0 -8 5 -22 10 -30 9 -13 10 -13 10 0 0 8 -5 22 -10 30
-9 13 -10 13 -10 0z"/>
<path d="M1937 1833 c-4 -3 -7 -11 -7 -17 0 -6 5 -5 12 2 6 6 9 14 7 17 -3 3
-9 2 -12 -2z"/>
<path d="M3230 1785 c-38 -21 -41 -25 -20 -25 18 0 21 -3 12 -9 -11 -7 -10 -9
3 -14 9 -4 13 -3 10 3 -3 6 0 10 7 10 9 0 9 3 -2 10 -13 9 -13 11 0 20 22 14
30 12 24 -7 -5 -15 -4 -15 4 -3 6 8 9 17 6 21 -2 4 6 10 18 12 19 4 20 4 3 5
-11 1 -40 -10 -65 -23z"/>
<path d="M7755 1769 c-4 -6 -5 -12 -2 -15 2 -3 7 2 10 11 7 17 1 20 -8 4z"/>
<path d="M2006 1755 c3 -11 7 -25 7 -30 0 -6 6 -16 14 -23 19 -18 16 -3 -8 38
-11 19 -17 26 -13 15z"/>
<path d="M3060 1699 c-19 -10 -28 -19 -20 -19 8 0 26 9 40 20 31 25 25 24 -20
-1z"/>
<path d="M2013 1675 c0 -8 4 -15 9 -15 4 0 8 4 8 9 0 6 -4 12 -8 15 -5 3 -9
-1 -9 -9z"/>
<path d="M2040 1672 c0 -4 16 -16 35 -26 19 -10 32 -23 29 -28 -3 -4 -9 -6
-13 -4 -4 3 -7 -7 -6 -22 1 -19 7 -28 21 -29 19 -3 19 -3 0 5 -19 8 -18 9 5
16 13 5 31 8 39 7 16 -2 -17 28 -62 56 -16 10 -28 21 -28 25 0 4 -4 8 -10 8
-5 0 -10 -3 -10 -8z m79 -73 c-22 -14 -33 -10 -19 6 7 8 17 12 22 9 6 -4 5
-10 -3 -15z"/>
<path d="M2995 1670 c-3 -5 -2 -10 4 -10 5 0 13 5 16 10 3 6 2 10 -4 10 -5 0
-13 -4 -16 -10z"/>
<path d="M7614 1632 c3 -6 1 -23 -5 -39 -8 -22 -8 -26 2 -16 17 17 21 50 7 59
-6 4 -8 3 -4 -4z"/>
<path d="M1336 1614 c-6 -15 17 -64 29 -64 3 0 -1 11 -10 24 -8 13 -13 31 -9
40 3 9 4 16 1 16 -3 0 -8 -7 -11 -16z"/>
<path d="M2890 1620 c-8 -4 -26 -12 -39 -17 -21 -8 -22 -10 -7 -16 10 -4 15
-3 11 3 -3 6 2 10 12 10 20 0 50 16 43 23 -3 3 -12 1 -20 -3z"/>
<path d="M7630 1575 c-7 -13 -18 -23 -23 -22 -6 1 -11 -2 -12 -8 0 -5 -4 -16
-8 -22 -5 -7 -5 -13 0 -13 10 0 67 80 61 86 -3 2 -11 -7 -18 -21z"/>
<path d="M2136 1568 c3 -5 10 -6 15 -3 13 9 11 12 -6 12 -8 0 -12 -4 -9 -9z"/>
<path d="M2770 1570 c-9 -6 -10 -10 -3 -10 6 0 15 5 18 10 8 12 4 12 -15 0z"/>
<path d="M1382 1547 c-17 -20 77 -132 95 -114 2 3 -5 8 -16 12 -20 6 -26 17
-21 40 1 5 -2 7 -6 3 -8 -9 -34 10 -34 24 0 6 6 6 14 -1 10 -8 16 -9 21 -1 4
6 3 10 -2 9 -4 -1 -11 0 -15 1 -9 3 -24 7 -34 9 -4 0 -1 8 6 16 7 8 10 15 7
15 -2 0 -9 -6 -15 -13z"/>
<path d="M1415 1551 c-3 -5 -2 -12 3 -15 5 -3 9 1 9 9 0 17 -3 19 -12 6z"/>
<path d="M2695 1530 c-13 -5 -14 -9 -5 -9 8 0 24 4 35 9 13 5 14 9 5 9 -8 0
-24 -4 -35 -9z"/>
<path d="M7559 1523 c-13 -16 -12 -17 4 -4 9 7 17 15 17 17 0 8 -8 3 -21 -13z"/>
<path d="M2284 1515 c22 -17 84 -31 93 -21 4 3 -4 6 -16 6 -12 0 -38 7 -59 15
-32 13 -35 13 -18 0z"/>
<path d="M2610 1500 c-13 -8 -13 -10 2 -10 9 0 20 5 23 10 8 13 -5 13 -25 0z"/>
<path d="M2675 1500 c-8 -13 5 -13 25 0 13 8 13 10 -2 10 -9 0 -20 -4 -23 -10z"/>
<path d="M2518 1493 c12 -2 30 -2 40 0 9 3 -1 5 -23 4 -22 0 -30 -2 -17 -4z"/>
<path d="M7560 1485 c0 -8 -10 -23 -22 -35 -12 -11 -17 -20 -11 -20 11 0 53
51 53 64 0 3 -4 6 -10 6 -5 0 -10 -7 -10 -15z"/>
<path d="M2413 1483 c15 -2 37 -2 50 0 12 2 0 4 -28 4 -27 0 -38 -2 -22 -4z"/>
<path d="M1488 1453 c7 -3 16 -2 19 1 4 3 -2 6 -13 5 -11 0 -14 -3 -6 -6z"/>
</g>
</svg>
